<svg width="343" height="44" viewBox="0 0 343 44" fill="none" xmlns="http://www.w3.org/2000/svg">
<mask id="mask0_1762_4478" style="mask-type:luminance" maskUnits="userSpaceOnUse" x="0" y="0" width="44" height="44">
<path d="M44 0H0V44H44V0Z" fill="white"/>
</mask>
<g mask="url(#mask0_1762_4478)">
<path d="M11.295 41.468C11.2928 41.4678 11.2906 41.4671 11.2887 41.466L11.295 41.468ZM10.1248 36.7538C10.0955 36.7852 10.0609 36.8187 10.0305 36.848L10.0284 36.8501C9.85678 37.0252 9.69817 37.2125 9.55385 37.4106L9.54861 37.4159C9.53041 37.4435 9.51155 37.4708 9.49204 37.4976L9.48366 37.5175C9.46271 37.5426 9.45119 37.5699 9.42919 37.594C9.42604 37.6076 9.4229 37.6107 9.41766 37.618C9.40299 37.6432 9.38833 37.6641 9.37576 37.6935C9.37261 37.7008 9.36318 37.7102 9.36004 37.7155C9.34957 37.7406 9.33071 37.7679 9.32233 37.7909C9.31918 37.7951 9.31185 37.8014 9.30871 37.814C9.24899 37.9229 9.20185 38.0392 9.1589 38.145C9.15576 38.1586 9.15366 38.1712 9.14947 38.1733C9.14528 38.2005 9.1348 38.2204 9.13166 38.2414L9.11804 38.277C9.11385 38.298 9.10652 38.3189 9.10442 38.3399C9.10412 38.3531 9.102 38.366 9.09814 38.3786C9.0929 38.3975 9.08452 38.4132 9.08033 38.4415C9.07719 38.454 9.07718 38.4677 9.07718 38.4771C9.0742 38.5115 9.06825 38.5454 9.05938 38.5787C9.05398 38.5964 9.05082 38.6148 9.04995 38.6332V38.6772L9.04785 38.7369V38.7935C9.04785 38.8207 9.04785 38.849 9.04995 38.8783V38.9276C9.04995 38.9475 9.04995 38.959 9.05204 38.98C9.05204 38.9967 9.05833 39.0093 9.06252 39.0292C9.0688 39.0439 9.0688 39.0638 9.07195 39.0784C9.07541 39.0963 9.07683 39.1147 9.07614 39.1329C9.07836 39.1479 9.08371 39.1621 9.09185 39.1748C9.09499 39.2 9.10128 39.2167 9.10233 39.2314C9.10233 39.2492 9.10547 39.2639 9.1128 39.2764C9.11699 39.2963 9.12747 39.3152 9.13061 39.333C9.13376 39.3508 9.14004 39.3623 9.14214 39.377C9.15157 39.398 9.15576 39.4189 9.16728 39.442C9.17026 39.454 9.17483 39.4656 9.1809 39.4765C9.19912 39.5085 9.2132 39.5426 9.2228 39.5781C9.23747 39.6106 9.25633 39.6441 9.27518 39.6787C9.27797 39.6889 9.28258 39.6985 9.2888 39.707C9.30137 39.7311 9.32023 39.752 9.32861 39.7761C9.33909 39.7898 9.34957 39.8023 9.34957 39.816C9.36633 39.8369 9.3768 39.8547 9.39461 39.8809C9.40179 39.8926 9.40985 39.9038 9.41871 39.9144C9.43023 39.9396 9.45328 39.9563 9.4648 39.9815C9.4738 39.993 9.48186 40.0053 9.4889 40.0181C9.5109 40.0391 9.52557 40.0642 9.54337 40.0883L9.56747 40.1166C9.59284 40.1395 9.61473 40.166 9.63242 40.1952C9.6408 40.1973 9.65023 40.2099 9.65338 40.2224C9.68431 40.2506 9.71303 40.281 9.73928 40.3136C9.74138 40.3136 9.74137 40.3188 9.74557 40.3209C9.80842 40.3838 9.87757 40.456 9.95823 40.5179C9.96661 40.5304 9.9729 40.5367 9.97604 40.543C10.0055 40.5734 10.0382 40.6004 10.0735 40.6237L10.1028 40.654C10.1328 40.6771 10.1609 40.7028 10.1866 40.7305C10.2034 40.7358 10.218 40.7483 10.2243 40.7557C10.2537 40.7808 10.2872 40.8101 10.3228 40.8321C10.3312 40.8426 10.3459 40.85 10.3542 40.8594C10.3909 40.8845 10.4265 40.9118 10.4621 40.94C10.4705 40.9505 10.4831 40.9526 10.4883 40.961C10.5344 40.9893 10.5763 41.0228 10.6245 41.0521L10.6287 41.0626C10.6811 41.0961 10.7335 41.1318 10.7859 41.1632C10.9451 41.27 11.1117 41.3727 11.295 41.468C11.4825 41.5665 11.6669 41.6556 11.8555 41.752L11.8932 41.7666C15.3839 43.3831 21.6329 44.1615 22.4364 42.7179C23.1865 41.3832 20.1841 38.7369 12.285 35.1289C11.4061 35.6779 10.6706 36.2153 10.1248 36.7538Z" fill="url(#paint0_radial_1762_4478)"/>
<path d="M20.6089 1.26929C19.8609 2.59872 22.8613 5.25024 30.7624 8.85824C30.8148 8.82158 30.8672 8.79015 30.9164 8.75872V8.75662C31.2684 8.53243 31.6005 8.31557 31.898 8.09243C31.898 8.09034 31.9054 8.08615 31.9074 8.08405C31.9504 8.05472 31.9829 8.02434 32.0227 7.99815C32.0279 7.99815 32.0311 7.99291 32.0332 7.98872C32.0793 7.95938 32.1149 7.92796 32.1484 7.90177C32.1547 7.89967 32.1589 7.89234 32.1631 7.8871C32.1997 7.85986 32.2385 7.83367 32.2741 7.80957V7.80224C32.4375 7.67234 32.5821 7.54767 32.7214 7.41986L32.8157 7.34024C32.821 7.335 32.821 7.32557 32.8294 7.31929C32.8537 7.29263 32.88 7.26777 32.9079 7.24491C32.9132 7.24222 32.9179 7.23838 32.9214 7.23367C32.9251 7.22895 32.9276 7.22348 32.9289 7.21767C32.9561 7.19357 32.9834 7.17157 33.0116 7.14538C33.0145 7.13605 33.0204 7.12794 33.0284 7.12234L33.1017 7.049C33.1085 7.04126 33.1145 7.03284 33.1195 7.02386C33.1478 6.99767 33.1677 6.96938 33.196 6.94529C33.1981 6.9411 33.2023 6.9411 33.2023 6.93796C33.2798 6.84891 33.3594 6.75462 33.4244 6.66872L33.4265 6.66348C33.4454 6.63624 33.4663 6.6111 33.481 6.587C33.4862 6.57653 33.4998 6.56919 33.503 6.55977C33.5187 6.53881 33.5323 6.51577 33.5491 6.49062C33.5533 6.47805 33.5658 6.46967 33.5753 6.455C33.5836 6.43719 33.6014 6.41624 33.6109 6.39424C33.6203 6.38377 33.6266 6.37224 33.6371 6.35967C33.6475 6.33767 33.6612 6.31777 33.6727 6.29681C33.6962 6.26634 33.7155 6.23288 33.7303 6.19729C33.7408 6.18577 33.745 6.17634 33.745 6.16586C33.7586 6.14177 33.7733 6.12186 33.7816 6.10091C33.7839 6.09192 33.7872 6.08315 33.7911 6.07472C33.8184 6.0241 33.8411 5.97116 33.8592 5.91653C33.8592 5.91234 33.8613 5.91234 33.8613 5.90605C33.8717 5.8851 33.8822 5.86624 33.8874 5.84319C33.8895 5.82957 33.8969 5.8191 33.9021 5.80862C33.9053 5.78662 33.9115 5.76986 33.9178 5.74891C33.9231 5.73215 33.9294 5.72272 33.9314 5.70596C33.9346 5.68815 33.9409 5.67453 33.9472 5.64624C33.9539 5.63427 33.9581 5.6211 33.9597 5.60748L33.9681 5.55091C33.9693 5.536 33.9731 5.52144 33.9796 5.50796L33.988 5.45138C33.988 5.43567 33.988 5.421 33.9912 5.40005L33.9933 5.34977C33.9954 5.33719 33.9954 5.32043 33.9995 5.30577L34.0027 5.25024V5.18738C34.0027 5.15596 34.0027 5.135 33.9995 5.10777C33.9995 5.0931 33.9995 5.07843 33.9974 5.05538C33.9969 5.04025 33.9951 5.02518 33.9922 5.01034C33.9922 4.99357 33.9922 4.97053 33.9901 4.95796C33.9901 4.9391 33.987 4.92653 33.9838 4.90977C33.9807 4.88777 33.9744 4.87415 33.9713 4.86262L33.9629 4.80919C33.9629 4.79138 33.9576 4.77672 33.9524 4.75577C33.9493 4.739 33.9346 4.72643 33.9346 4.70548C33.9325 4.69081 33.9262 4.6751 33.9189 4.6531C33.9089 4.61729 33.8962 4.58228 33.8812 4.54834C33.8802 4.53387 33.8742 4.52018 33.8644 4.50957C33.856 4.48548 33.8497 4.45719 33.8351 4.4331C33.8298 4.42053 33.8267 4.40272 33.8214 4.39434C33.8026 4.36605 33.7911 4.33672 33.7722 4.31053C33.7675 4.29553 33.7604 4.28137 33.7513 4.26862C33.7439 4.25186 33.7293 4.23091 33.7209 4.21205C33.7146 4.19738 33.7031 4.18272 33.6947 4.16805C33.6811 4.1471 33.6664 4.13034 33.658 4.11043C33.6454 4.09367 33.6402 4.08005 33.6266 4.06643C33.6119 4.04653 33.6035 4.02662 33.5857 4.00777C33.5767 3.99219 33.5654 3.97805 33.5522 3.96586C33.5407 3.94491 33.526 3.92815 33.5103 3.90824C33.5009 3.89043 33.4883 3.881 33.4768 3.86843C33.463 3.84439 33.4452 3.8228 33.4244 3.80453C33.415 3.78462 33.4034 3.77729 33.3877 3.76262C33.3675 3.74034 33.3487 3.7169 33.3312 3.69243C33.3165 3.683 33.306 3.67777 33.3008 3.6631L33.2065 3.56462C33.1981 3.55507 33.1872 3.54814 33.1751 3.54472C33.151 3.51329 33.1248 3.48815 33.0975 3.46091C33.0859 3.44948 33.0729 3.43962 33.0588 3.43158C33.0373 3.4062 33.0126 3.38368 32.9854 3.36453C32.9708 3.34672 32.9593 3.33834 32.9435 3.32577C32.9163 3.30481 32.8922 3.28386 32.8671 3.26605C32.8493 3.25138 32.8377 3.23777 32.822 3.21996C32.7916 3.2011 32.7654 3.18538 32.7434 3.16548C32.7267 3.14935 32.708 3.13529 32.6879 3.12358L32.6094 3.05967C32.5884 3.04605 32.5779 3.03034 32.5517 3.023C32.5225 2.99748 32.492 2.97337 32.4606 2.95072C32.4428 2.94234 32.4281 2.92977 32.4124 2.92348C32.36 2.88786 32.3139 2.85224 32.2626 2.81872C32.1856 2.76789 32.1073 2.71898 32.0279 2.67205H32.0248L31.7713 2.52538C31.765 2.52224 31.7629 2.51491 31.7545 2.51491C31.5722 2.42062 31.3826 2.32843 31.1961 2.23415L31.1584 2.21634C28.9469 1.19386 25.6333 0.509766 23.296 0.509766C21.9362 0.510813 20.9127 0.737099 20.6089 1.26929Z" fill="url(#paint1_radial_1762_4478)"/>
<path d="M31.0997 37.6552C24.6882 40.6514 17.8997 43.9786 21.5318 43.9985C31.2233 44.0425 39.6661 37.7998 42.6214 28.6719C41.4533 31.1757 38.366 34.2494 31.0997 37.6552Z" fill="url(#paint2_radial_1762_4478)"/>
<path d="M31.7683 2.52344C31.9463 2.62506 32.1129 2.71934 32.2606 2.81782C39.1603 7.34877 24.1353 11.82 12.4041 17.1199C4.50813 20.6849 -0.48168 23.4831 0.0368906 26.9361C0.565938 30.4802 3.56737 37.4437 11.2936 41.4666C11.1185 41.3746 10.9485 41.2732 10.7844 41.1627C3.88899 36.6318 18.9077 32.1637 30.6442 26.8627C38.539 23.2987 43.5341 20.5037 43.0155 17.0507C42.4781 13.5056 39.485 6.55572 31.7714 2.52449L31.7683 2.52344Z" fill="url(#paint3_radial_1762_4478)"/>
<path d="M30.6438 26.8636C27.6801 28.2067 24.5006 29.491 21.5264 30.7419C26.5183 32.8267 30.957 34.8182 32.9255 36.7584C35.1569 35.6207 36.9274 34.5196 38.3239 33.472C38.3302 33.472 38.3333 33.4626 38.3427 33.4594C38.4507 33.3756 38.5596 33.2887 38.6654 33.2101C38.6717 33.2028 38.6811 33.2028 38.6864 33.1923C38.7953 33.1116 38.8959 33.0299 38.9954 32.9503C39.0059 32.945 39.009 32.9377 39.0132 32.9325C39.1159 32.856 39.2091 32.7701 39.3066 32.6968C39.3087 32.6915 39.3107 32.6915 39.3149 32.6863C39.405 32.6077 39.4951 32.5333 39.5768 32.461C39.5919 32.4438 39.6096 32.429 39.6292 32.417C39.7026 32.3458 39.778 32.284 39.8545 32.2149C39.8798 32.1949 39.903 32.1725 39.9236 32.1478C39.9886 32.0902 40.0577 32.0221 40.1227 31.9624C40.1499 31.9372 40.1729 31.91 40.2023 31.8849C40.262 31.8262 40.3238 31.7654 40.3867 31.7078C40.4121 31.6795 40.4395 31.6529 40.4684 31.6282C40.5103 31.581 40.5564 31.537 40.6014 31.492C40.6402 31.4501 40.681 31.4082 40.7156 31.3663C40.7523 31.3317 40.7837 31.2929 40.8183 31.2573C40.8633 31.2049 40.9115 31.1557 40.9566 31.1086C40.988 31.0803 41.0142 31.0478 41.0425 31.0143L41.1923 30.8393C41.2101 30.8184 41.2352 30.7943 41.2499 30.7723C41.3578 30.6455 41.4542 30.5209 41.5537 30.393C41.5558 30.3909 41.5558 30.3836 41.5621 30.3784C41.6281 30.2988 41.6857 30.217 41.7465 30.1395C41.7496 30.1364 41.7496 30.129 41.7496 30.1238C42.0869 29.6684 42.3789 29.1809 42.6212 28.6687C42.8077 28.0317 42.9355 27.4471 43.0151 26.9359C43.2749 25.178 42.1173 23.5929 39.8796 21.9922C37.7058 23.5448 34.5273 25.1078 30.6438 26.8636Z" fill="url(#paint4_radial_1762_4478)"/>
<path d="M3.45711 11.5486L3.43091 11.5696C3.34606 11.645 3.2612 11.7173 3.18368 11.7927C3.16705 11.8071 3.14956 11.8204 3.1313 11.8325C3.05796 11.9048 2.98463 11.9708 2.91549 12.0441C2.88825 12.0599 2.87672 12.0756 2.85892 12.0986C2.78558 12.1615 2.71853 12.2317 2.65253 12.2924C2.63348 12.3135 2.61355 12.3337 2.59282 12.3532C2.53939 12.4129 2.48177 12.4684 2.42939 12.5281C2.39904 12.5518 2.37223 12.5797 2.34977 12.6109C2.30158 12.6549 2.25549 12.701 2.21358 12.7471L2.1193 12.8571C2.07739 12.899 2.04282 12.942 1.99672 12.9881L1.91711 13.0792C1.87415 13.1316 1.83225 13.1777 1.79663 13.2301C1.76206 13.2615 1.73272 13.2992 1.70234 13.3338C1.67301 13.3736 1.64263 13.4113 1.6133 13.4521C1.57349 13.4961 1.53787 13.5443 1.50434 13.5831C1.49202 13.6052 1.47649 13.6253 1.45825 13.6428C1.4132 13.713 1.36187 13.7727 1.31682 13.8408C1.30739 13.8555 1.29272 13.8681 1.29063 13.8796C1.2309 13.9572 1.17292 14.0361 1.11672 14.1163C0.833872 14.5301 0.607586 14.9356 0.427396 15.3284C0.258231 15.8927 0.129398 16.4682 0.0418723 17.0507C-0.226319 18.8034 0.937586 20.3884 3.17739 21.9934C5.34177 20.4377 8.5234 18.8725 12.4069 17.1178C15.3758 15.7789 18.5501 14.4945 21.5317 13.2458C16.5408 11.1495 12.0989 9.17471 10.1336 7.23242C7.15207 8.75042 4.9992 10.1951 3.45711 11.5486Z" fill="url(#paint5_radial_1762_4478)"/>
<path d="M21.4159 0C11.76 0 3.36861 6.23019 0.424805 15.3288C1.58766 12.8218 4.68023 9.75019 11.9454 6.34438C18.3548 3.34191 25.1444 0.0167619 21.5207 0H21.4159Z" fill="url(#paint6_radial_1762_4478)"/>
</g>
<path d="M50.0425 31.2031V13.3969H53.3391V21.1209L58.8734 13.3969H62.8197L56.1063 22.1556L62.8197 31.2031H58.8734L53.3391 23.4069V31.2031H50.0425ZM64.6272 35.6547V17.8725H67.5628V19.605H67.6109C68.012 18.9473 68.5895 18.4259 69.3434 18.0409C70.0974 17.6399 70.9476 17.4394 71.8941 17.4394C73.7549 17.4394 75.335 18.0971 76.6344 19.4125C77.9338 20.7279 78.5834 22.4364 78.5834 24.5378C78.5834 26.4789 77.9739 28.1472 76.7547 29.5428C75.5355 30.9384 73.9153 31.6363 71.8941 31.6363C71.108 31.6363 70.3621 31.4919 69.6563 31.2031C68.9665 30.8983 68.3729 30.4171 67.8756 29.7594H67.8275V35.6547H64.6272ZM71.5572 20.4712C70.3862 20.4873 69.4397 20.8803 68.7178 21.6503C67.9959 22.4043 67.635 23.3668 67.635 24.5378C67.635 25.7891 67.9879 26.7836 68.6938 27.5216C69.3996 28.2434 70.314 28.6044 71.4369 28.6044C72.5758 28.6044 73.5143 28.2194 74.2522 27.4494C74.9901 26.6794 75.3671 25.7008 75.3831 24.5137C75.3671 23.3587 74.9981 22.3962 74.2763 21.6262C73.5704 20.8562 72.6641 20.4712 71.5572 20.4712ZM93.7947 17.8725V31.2031H90.8591V29.3984H90.811C90.2495 30.1524 89.5757 30.7139 88.7897 31.0828C88.0197 31.4357 87.2096 31.6202 86.3594 31.6363C84.5788 31.6363 83.0468 30.9946 81.7635 29.7112C80.4801 28.4279 79.8385 26.7435 79.8385 24.6581C79.8385 22.5887 80.4721 20.8723 81.7394 19.5087C83.0227 18.1292 84.5948 17.4394 86.4556 17.4394C87.3861 17.4394 88.2202 17.6399 88.9581 18.0409C89.7121 18.4259 90.3297 18.9954 90.811 19.7494H90.8591V17.8725H93.7947ZM86.961 20.4712C85.806 20.4712 84.8595 20.8723 84.1216 21.6744C83.3997 22.4604 83.0388 23.455 83.0388 24.6581C83.0227 25.8131 83.3756 26.7596 84.0975 27.4975C84.8354 28.2354 85.7899 28.6044 86.961 28.6044C88.0999 28.6044 89.0223 28.2274 89.7281 27.4734C90.434 26.7195 90.7869 25.7329 90.7869 24.5137C90.7869 23.3587 90.434 22.3962 89.7281 21.6262C89.0223 20.8562 88.0999 20.4712 86.961 20.4712ZM106.167 26.8719H109.776C109.247 28.3317 108.412 29.4947 107.273 30.3609C106.151 31.2111 104.787 31.6363 103.183 31.6363C101.065 31.6363 99.3088 30.9625 97.9132 29.615C96.5175 28.2675 95.8197 26.543 95.8197 24.4416C95.8197 22.4524 96.5015 20.7921 97.865 19.4606C99.2446 18.1131 100.977 17.4394 103.063 17.4394C104.715 17.4394 106.135 17.8805 107.322 18.7628C108.509 19.6451 109.327 20.8242 109.776 22.3H106.167C105.846 21.7065 105.413 21.2573 104.867 20.9525C104.338 20.6477 103.72 20.4873 103.014 20.4712C101.779 20.4712 100.801 20.8643 100.079 21.6503C99.3729 22.4203 99.02 23.3668 99.02 24.4897C99.02 25.6768 99.381 26.6633 100.103 27.4494C100.841 28.2354 101.811 28.6204 103.014 28.6044C103.688 28.6044 104.298 28.468 104.843 28.1953C105.405 27.9066 105.846 27.4654 106.167 26.8719ZM111.789 17.8725H114.989V22.7812H119.946V17.8725H123.146V31.2031H119.946V25.6206H114.989V31.2031H111.789V17.8725ZM132.148 17.4394C134.153 17.4394 135.829 18.1372 137.177 19.5328C138.54 20.9284 139.222 22.6048 139.222 24.5619C139.222 26.535 138.54 28.2114 137.177 29.5909C135.829 30.9545 134.153 31.6363 132.148 31.6363C130.126 31.6363 128.442 30.9545 127.094 29.5909C125.747 28.2114 125.073 26.535 125.073 24.5619C125.073 22.6048 125.747 20.9284 127.094 19.5328C128.442 18.1372 130.126 17.4394 132.148 17.4394ZM132.148 20.4712C130.993 20.4712 130.054 20.8723 129.332 21.6744C128.626 22.4765 128.273 23.439 128.273 24.5619C128.257 25.6848 128.61 26.6393 129.332 27.4253C130.054 28.2114 130.993 28.6044 132.148 28.6044C133.286 28.6204 134.217 28.2354 134.939 27.4494C135.661 26.6473 136.022 25.6848 136.022 24.5619C136.022 23.439 135.661 22.4765 134.939 21.6744C134.217 20.8723 133.286 20.4712 132.148 20.4712ZM151.533 17.8725V31.2031H148.333V26.0778L144.387 31.2031H140.392L144.411 26.4869C143.32 26.3746 142.454 25.9254 141.812 25.1394C141.187 24.3533 140.874 23.4069 140.874 22.3C140.874 21.0969 141.307 20.0622 142.173 19.1959C143.039 18.3297 144.226 17.8885 145.734 17.8725H151.533ZM148.333 24.0566V20.7119H145.855C145.293 20.7119 144.852 20.8723 144.531 21.1931C144.226 21.514 144.074 21.9391 144.074 22.4684C144.074 22.9336 144.226 23.3186 144.531 23.6234C144.852 23.9122 145.293 24.0566 145.855 24.0566H148.333ZM154.133 35.6547V17.8725H157.069V19.605H157.117C157.518 18.9473 158.095 18.4259 158.849 18.0409C159.603 17.6399 160.454 17.4394 161.4 17.4394C163.261 17.4394 164.841 18.0971 166.14 19.4125C167.44 20.7279 168.089 22.4364 168.089 24.5378C168.089 26.4789 167.48 28.1472 166.261 29.5428C165.041 30.9384 163.421 31.6363 161.4 31.6363C160.614 31.6363 159.868 31.4919 159.162 31.2031C158.472 30.8983 157.879 30.4171 157.382 29.7594H157.333V35.6547H154.133ZM161.063 20.4712C159.892 20.4873 158.946 20.8803 158.224 21.6503C157.502 22.4043 157.141 23.3668 157.141 24.5378C157.141 25.7891 157.494 26.7836 158.2 27.5216C158.906 28.2434 159.82 28.6044 160.943 28.6044C162.082 28.6044 163.02 28.2194 163.758 27.4494C164.496 26.6794 164.873 25.7008 164.889 24.5137C164.873 23.3587 164.504 22.3962 163.782 21.6262C163.076 20.8562 162.17 20.4712 161.063 20.4712ZM179.788 26.8719H183.397C182.868 28.3317 182.033 29.4947 180.894 30.3609C179.771 31.2111 178.408 31.6363 176.804 31.6363C174.686 31.6363 172.93 30.9625 171.534 29.615C170.138 28.2675 169.441 26.543 169.441 24.4416C169.441 22.4524 170.122 20.7921 171.486 19.4606C172.866 18.1131 174.598 17.4394 176.683 17.4394C178.336 17.4394 179.755 17.8805 180.943 18.7628C182.13 19.6451 182.948 20.8242 183.397 22.3H179.788C179.467 21.7065 179.034 21.2573 178.488 20.9525C177.959 20.6477 177.341 20.4873 176.635 20.4712C175.4 20.4712 174.422 20.8643 173.7 21.6503C172.994 22.4203 172.641 23.3668 172.641 24.4897C172.641 25.6768 173.002 26.6633 173.724 27.4494C174.462 28.2354 175.432 28.6204 176.635 28.6044C177.309 28.6044 177.919 28.468 178.464 28.1953C179.026 27.9066 179.467 27.4654 179.788 26.8719ZM185.41 31.2031V17.8725H188.61V23.9844L193.374 17.8725H197.176L191.858 24.1287L197.465 31.2031H193.422L188.61 24.8025V31.2031H185.41ZM198.79 26.8719H202.4C202.688 27.4654 203.097 27.9066 203.627 28.1953C204.172 28.468 204.806 28.6044 205.528 28.6044C206.506 28.6204 207.324 28.3878 207.982 27.9066C208.64 27.4093 209.097 26.7596 209.354 25.9575H203.843V23.1181H209.354C209.113 22.3321 208.664 21.6984 208.006 21.2172C207.349 20.7199 206.538 20.4712 205.576 20.4712C204.886 20.4712 204.252 20.6236 203.675 20.9284C203.114 21.2332 202.688 21.6904 202.4 22.3H198.79C199.223 20.8402 200.034 19.6692 201.221 18.7869C202.408 17.8885 203.843 17.4394 205.528 17.4394C207.581 17.4394 209.298 18.1051 210.677 19.4366C212.057 20.768 212.747 22.4364 212.747 24.4416C212.747 26.543 212.041 28.2675 210.629 29.615C209.217 30.9625 207.477 31.6363 205.407 31.6363C203.803 31.6363 202.424 31.2111 201.269 30.3609C200.114 29.4947 199.288 28.3317 198.79 26.8719ZM214.759 17.8725H217.96V22.7812H222.917V17.8725H226.117V31.2031H222.917V25.6206H217.96V31.2031H214.759V17.8725ZM242.024 25.9575H231.581C231.773 26.7756 232.182 27.4253 232.808 27.9066C233.45 28.3718 234.204 28.6044 235.07 28.6044C235.712 28.6204 236.281 28.5242 236.778 28.3156C237.292 28.091 237.717 27.7702 238.054 27.3531H241.663C241.102 28.6846 240.251 29.7353 239.112 30.5053C237.974 31.2593 236.666 31.6363 235.19 31.6363C233.185 31.6363 231.509 30.9625 230.161 29.615C228.814 28.2675 228.14 26.6072 228.14 24.6341C228.14 22.6609 228.814 20.9685 230.161 19.5569C231.525 18.1452 233.217 17.4394 235.238 17.4394C237.244 17.4394 238.88 18.1211 240.147 19.4847C241.431 20.8482 242.08 22.5326 242.096 24.5378C242.096 24.8586 242.088 25.1314 242.072 25.3559C242.056 25.5645 242.04 25.765 242.024 25.9575ZM231.533 23.1181H238.752C238.527 22.3 238.094 21.6583 237.452 21.1931C236.811 20.7119 236.073 20.4712 235.238 20.4712C234.356 20.4873 233.578 20.7359 232.904 21.2172C232.247 21.6824 231.789 22.316 231.533 23.1181ZM244.109 35.6547V17.8725H247.045V19.605H247.093C247.494 18.9473 248.071 18.4259 248.825 18.0409C249.579 17.6399 250.429 17.4394 251.376 17.4394C253.237 17.4394 254.817 18.0971 256.116 19.4125C257.416 20.7279 258.065 22.4364 258.065 24.5378C258.065 26.4789 257.456 28.1472 256.237 29.5428C255.017 30.9384 253.397 31.6363 251.376 31.6363C250.59 31.6363 249.844 31.4919 249.138 31.2031C248.448 30.8983 247.855 30.4171 247.357 29.7594H247.309V35.6547H244.109ZM251.039 20.4712C249.868 20.4873 248.922 20.8803 248.2 21.6503C247.478 22.4043 247.117 23.3668 247.117 24.5378C247.117 25.7891 247.47 26.7836 248.176 27.5216C248.881 28.2434 249.796 28.6044 250.919 28.6044C252.058 28.6044 252.996 28.2194 253.734 27.4494C254.472 26.6794 254.849 25.7008 254.865 24.5137C254.849 23.3587 254.48 22.3962 253.758 21.6262C253.052 20.8562 252.146 20.4712 251.039 20.4712ZM259.994 17.8725H267.55V20.7119H263.194V31.2031H259.994V17.8725ZM275.536 17.4394C277.541 17.4394 279.217 18.1372 280.565 19.5328C281.928 20.9284 282.61 22.6048 282.61 24.5619C282.61 26.535 281.928 28.2114 280.565 29.5909C279.217 30.9545 277.541 31.6363 275.536 31.6363C273.514 31.6363 271.83 30.9545 270.482 29.5909C269.135 28.2114 268.461 26.535 268.461 24.5619C268.461 22.6048 269.135 20.9284 270.482 19.5328C271.83 18.1372 273.514 17.4394 275.536 17.4394ZM275.536 20.4712C274.381 20.4712 273.442 20.8723 272.72 21.6744C272.014 22.4765 271.662 23.439 271.662 24.5619C271.645 25.6848 271.998 26.6393 272.72 27.4253C273.442 28.2114 274.381 28.6044 275.536 28.6044C276.675 28.6204 277.605 28.2354 278.327 27.4494C279.049 26.6473 279.41 25.6848 279.41 24.5619C279.41 23.439 279.049 22.4765 278.327 21.6744C277.605 20.8723 276.675 20.4712 275.536 20.4712ZM294.296 26.8719H297.905C297.376 28.3317 296.542 29.4947 295.403 30.3609C294.28 31.2111 292.916 31.6363 291.312 31.6363C289.195 31.6363 287.438 30.9625 286.042 29.615C284.647 28.2675 283.949 26.543 283.949 24.4416C283.949 22.4524 284.631 20.7921 285.994 19.4606C287.374 18.1131 289.106 17.4394 291.192 17.4394C292.844 17.4394 294.264 17.8805 295.451 18.7628C296.638 19.6451 297.456 20.8242 297.905 22.3H294.296C293.975 21.7065 293.542 21.2573 292.997 20.9525C292.467 20.6477 291.85 20.4873 291.144 20.4712C289.908 20.4712 288.93 20.8643 288.208 21.6503C287.502 22.4203 287.149 23.3668 287.149 24.4897C287.149 25.6768 287.51 26.6633 288.232 27.4494C288.97 28.2354 289.941 28.6204 291.144 28.6044C291.817 28.6044 292.427 28.468 292.972 28.1953C293.534 27.9066 293.975 27.4654 294.296 26.8719ZM312.864 13.3969V16.2362L307.69 16.3325C306.006 16.3646 304.682 16.7416 303.72 17.4634C302.773 18.1693 302.204 19.1879 302.011 20.5194H302.06C302.605 19.7494 303.303 19.1478 304.153 18.7147C305.003 18.2816 305.982 18.065 307.089 18.065C308.933 18.065 310.449 18.6585 311.636 19.8456C312.824 21.0327 313.417 22.5968 313.417 24.5378C313.417 26.6232 312.751 28.3317 311.42 29.6631C310.088 30.9785 308.356 31.6363 306.222 31.6363C303.928 31.6363 302.196 30.9304 301.025 29.5187C299.854 28.1071 299.268 26.0377 299.268 23.3106C299.252 20.2948 299.934 17.9206 301.314 16.1881C302.709 14.4556 304.859 13.5573 307.762 13.4931L312.864 13.3969ZM306.415 20.9044C305.308 20.9044 304.394 21.2573 303.672 21.9631C302.966 22.669 302.613 23.5994 302.613 24.7544C302.613 25.9415 302.958 26.8799 303.648 27.5697C304.338 28.2595 305.26 28.6044 306.415 28.6044C307.554 28.6044 308.468 28.2515 309.158 27.5456C309.848 26.8398 310.201 25.9094 310.217 24.7544C310.201 23.5673 309.84 22.6289 309.134 21.9391C308.444 21.2493 307.538 20.9044 306.415 20.9044ZM315.31 17.8725H318.51V22.5406H321.373C322.689 22.5406 323.764 22.9256 324.598 23.6956C325.432 24.4496 325.849 25.5083 325.849 26.8719C325.833 28.2194 325.408 29.2781 324.574 30.0481C323.756 30.8181 322.689 31.2031 321.373 31.2031H315.31V17.8725ZM318.51 25.38V28.3637H321.036C321.55 28.3798 321.943 28.2515 322.216 27.9787C322.504 27.706 322.649 27.3371 322.649 26.8719C322.649 26.4227 322.512 26.0698 322.24 25.8131C321.967 25.5404 321.566 25.396 321.036 25.38H318.51ZM327.317 31.2031V17.8725H330.517V31.2031H327.317ZM332.063 17.8725H341.664V20.7119H338.463V31.2031H335.263V20.7119H332.063V17.8725Z" fill="#005D9F"/>
<defs>
<radialGradient id="paint0_radial_1762_4478" cx="0" cy="0" r="1" gradientUnits="userSpaceOnUse" gradientTransform="translate(19.0977 33.766) scale(10.0628 10.0076)">
<stop stop-color="#F58921"/>
<stop offset="0.682" stop-color="#F58921"/>
<stop offset="0.733" stop-color="#F48321"/>
<stop offset="1" stop-color="#EF6722"/>
</radialGradient>
<radialGradient id="paint1_radial_1762_4478" cx="0" cy="0" r="1" gradientUnits="userSpaceOnUse" gradientTransform="translate(23.5391 11.4521) scale(11.3126 11.2506)">
<stop stop-color="#F58921"/>
<stop offset="0.278" stop-color="#F58921"/>
<stop offset="0.73" stop-color="#F58921"/>
<stop offset="0.822" stop-color="#F48221"/>
<stop offset="0.953" stop-color="#F17022"/>
<stop offset="1" stop-color="#EF6722"/>
</radialGradient>
<radialGradient id="paint2_radial_1762_4478" cx="0" cy="0" r="1" gradientUnits="userSpaceOnUse" gradientTransform="translate(25.0727 36.2325) scale(11.7383 11.6738)">
<stop stop-color="#005C9B"/>
<stop offset="0.247" stop-color="#004785"/>
<stop offset="0.43" stop-color="#00518F"/>
<stop offset="0.661" stop-color="#0065A3"/>
<stop offset="0.787" stop-color="#1572B0"/>
<stop offset="1" stop-color="#418ECC"/>
</radialGradient>
<radialGradient id="paint3_radial_1762_4478" cx="0" cy="0" r="1" gradientUnits="userSpaceOnUse" gradientTransform="translate(29.672 15.2268) scale(33.306 33.1233)">
<stop stop-color="#6DA3D7"/>
<stop offset="0.209" stop-color="#518AC8"/>
<stop offset="0.252" stop-color="#4683C1"/>
<stop offset="0.461" stop-color="#1461A2"/>
<stop offset="0.564" stop-color="#005496"/>
<stop offset="0.695" stop-color="#004B8C"/>
<stop offset="0.791" stop-color="#005191"/>
<stop offset="0.859" stop-color="#00589B"/>
<stop offset="0.921" stop-color="#0062A9"/>
<stop offset="0.96" stop-color="#2578BA"/>
<stop offset="1" stop-color="#4E91CD"/>
</radialGradient>
<radialGradient id="paint4_radial_1762_4478" cx="0" cy="0" r="1" gradientUnits="userSpaceOnUse" gradientTransform="translate(27.2369 21.9922) scale(16.2386 16.1496)">
<stop stop-color="#F58921"/>
<stop offset="0.753" stop-color="#F58921"/>
<stop offset="0.859" stop-color="#F37D21"/>
<stop offset="1" stop-color="#EF6722"/>
</radialGradient>
<radialGradient id="paint5_radial_1762_4478" cx="0" cy="0" r="1" gradientUnits="userSpaceOnUse" gradientTransform="translate(20.4599 17.9957) scale(17.2675 17.1728)">
<stop stop-color="#F58921"/>
<stop offset="0.658" stop-color="#F58921"/>
<stop offset="0.978" stop-color="#EF6922"/>
<stop offset="1" stop-color="#EF6722"/>
</radialGradient>
<radialGradient id="paint6_radial_1762_4478" cx="0" cy="0" r="1" gradientUnits="userSpaceOnUse" gradientTransform="translate(16.1192 9.61295) scale(11.6079 11.5443)">
<stop stop-color="#005C9B"/>
<stop offset="0.172" stop-color="#004785"/>
<stop offset="0.318" stop-color="#00518F"/>
<stop offset="0.502" stop-color="#0065A3"/>
<stop offset="0.944" stop-color="#418ECC"/>
<stop offset="1" stop-color="#418ECC"/>
</radialGradient>
</defs>
</svg>
